<svg xmlns="http://www.w3.org/2000/svg" viewBox="0 0 410.8 117.56"><defs><style>.cls-1{fill:#609fff;}.cls-2{fill:#f4f4f4;}</style></defs><g id="Layer_2" data-name="Layer 2"><g id="Layer_1-2" data-name="Layer 1"><path class="cls-1" d="M69.17,36.14a38.26,38.26,0,0,1,14.69,15.2q5.33,9.79,5.32,22.81T83.86,97a38.32,38.32,0,0,1-14.69,15.2,40.74,40.74,0,0,1-20.77,5.41q-16.89,0-25.72-11v9.72h0A22.67,22.67,0,0,1,0,93.63V0H0A23.74,23.74,0,0,1,23.74,23.74V40.91q9-10.18,24.66-10.18A40.74,40.74,0,0,1,69.17,36.14Zm-9.89,55q5.85-6.34,5.86-17t-5.86-17a19.53,19.53,0,0,0-15-6.34,19.51,19.51,0,0,0-15,6.34q-5.86,6.36-5.86,17t5.86,17a19.44,19.44,0,0,0,15,6.34A19.46,19.46,0,0,0,59.28,91.15Z"/><path class="cls-1" d="M184.75,81H122.81a19.92,19.92,0,0,0,7.92,12.38Q137,98,146.25,98a30.67,30.67,0,0,0,11.33-2,27.18,27.18,0,0,0,9.21-6.2l12.63,14.11q-11.56,13.65-33.78,13.64a52.14,52.14,0,0,1-24.5-5.56A40.14,40.14,0,0,1,104.7,96.56a43.45,43.45,0,0,1-5.78-22.41,44.09,44.09,0,0,1,5.71-22.35A40.48,40.48,0,0,1,120.3,36.29a47.29,47.29,0,0,1,44.06-.23,38.24,38.24,0,0,1,15.29,15.28q5.57,10,5.56,23.12C185.21,74.78,185.05,77,184.75,81ZM129.2,53.92a20.21,20.21,0,0,0-6.69,12.86h40.32A20.38,20.38,0,0,0,156.14,54a19.64,19.64,0,0,0-13.39-4.78A20.11,20.11,0,0,0,129.2,53.92Z"/><path class="cls-2" d="M306.77,41.38q9.35,9.42,9.35,27.9v48.28H292.38V73q0-10-4.26-15T275.8,53.14q-9,0-14.31,5.72c-3.55,3.81-5.33,9.49-5.33,17v41.7H232.42V1.25h0A23.74,23.74,0,0,1,256.16,25V42a31.42,31.42,0,0,1,11.42-7.44A39.85,39.85,0,0,1,282.19,32Q297.4,32,306.77,41.38Z"/><path class="cls-2" d="M410.8,32v61.8a22.53,22.53,0,0,1-22.53,22.53h0v-10A31.75,31.75,0,0,1,377,114.66a34.58,34.58,0,0,1-14.15,2.9q-16.14,0-25.57-9.56t-9.43-28.36V32H351.6V76q0,20.37,16.58,20.37,8.54,0,13.7-5.72c3.45-3.81,5.18-9.49,5.18-17v-18A23.74,23.74,0,0,1,410.8,32Z"/><rect class="cls-2" x="194.94" y="89.81" width="27.74" height="27.74" rx="13.87" transform="translate(417.63 207.37) rotate(180)"/></g></g></svg>